<svg width="32" height="31" viewBox="0 0 32 31" fill="none" xmlns="http://www.w3.org/2000/svg">
<g clip-path="url(#clip0_62_159)">
<path d="M18.0148 1.26803L21.2204 7.83309C21.5491 8.50289 22.1811 8.96817 22.9142 9.07555L30.0787 10.1288C31.9191 10.3998 32.6573 12.6904 31.3225 14.0045L26.14 19.1174C25.6091 19.639 25.3715 20.3906 25.4928 21.1268L26.7164 28.3413C27.0299 30.1973 25.1035 31.6136 23.4552 30.7341L17.0441 27.3289C16.3918 26.9812 15.6081 26.9812 14.9559 27.3289L8.54479 30.7341C6.8965 31.6084 4.97013 30.1973 5.28361 28.3413L6.50718 21.1268C6.63359 20.3906 6.39089 19.639 5.86 19.1174L0.682567 14.0045C-0.652241 12.6904 0.0859486 10.3998 1.92637 10.1288L9.09085 9.07555C9.82398 8.96817 10.456 8.50289 10.7846 7.83309L13.9851 1.26803C14.8093 -0.419257 17.1907 -0.419257 18.0148 1.26803Z" fill="#B88A6A"/>
</g>
<defs>
<clipPath id="clip0_62_159">
<rect width="32" height="31" fill="white"/>
</clipPath>
</defs>
</svg>
