<svg width="61" height="55" viewBox="0 0 61 55" fill="none" xmlns="http://www.w3.org/2000/svg">
<g clip-path="url(#clip0_48_121)">
<path d="M0.694144 44.9695C0.694144 43.5339 0.694144 42.089 0.694144 40.6534C0.694144 40.2339 0.628482 39.8517 0.328313 39.5254C0.0938055 39.2737 0.150087 39.0966 0.515918 39.0873C1.47271 39.0873 2.4295 39.0873 3.37691 39.0873C3.7146 39.0873 3.7146 39.2737 3.53637 39.4695C3.1893 39.8517 3.1424 40.3085 3.1424 40.7932C3.1424 43.8229 3.1424 46.8619 3.1424 49.8915C3.1424 50.7025 3.33 50.9822 4.10857 51.2432C6.49116 52.0449 8.90189 52.7627 11.397 53.1449C12.6915 53.3407 14.0048 53.4432 15.2711 52.9119C15.4118 52.8559 15.5994 52.8093 15.6838 52.9585C15.7495 53.0703 15.6276 53.2102 15.5244 53.3034C14.4644 54.2729 13.3012 54.9161 11.7723 54.9907C10.0463 55.0746 8.59235 54.4034 7.0915 53.7788C5.9002 53.2847 4.75581 52.6788 3.62079 52.0636C2.62648 51.5322 1.59465 51.1034 0.469017 50.9263C0.290792 50.8983 0.0562843 50.8983 2.60724e-06 50.6839C-0.0468988 50.4975 0.196989 50.4881 0.300172 50.3949C0.590961 50.1153 0.694144 49.7797 0.694144 49.3881C0.694144 47.9153 0.694144 46.4424 0.694144 44.9695Z" fill="#161616"/>
<path d="M24.7358 39.7398C26.1053 39.6839 27.2497 39.9915 28.1971 40.8492C28.4317 41.0542 28.8162 41.2593 28.4786 41.6788C28.0658 42.2008 27.7281 42.2754 27.2873 41.9119C26.5837 41.3432 25.7958 41.0263 24.8859 41.1102C24.2668 41.1661 23.6665 41.2873 23.2444 41.8093C22.7753 42.3873 22.8035 42.9559 23.3194 43.4873C23.6383 43.8136 24.0323 44.0093 24.445 44.1585C25.1486 44.4008 25.8615 44.6339 26.565 44.8856C26.837 44.9788 27.0997 45.1 27.3623 45.2212C28.6943 45.8644 29.2008 46.9551 29.0508 48.3907C28.91 49.6305 28.1971 50.4602 27.0621 50.861C25.1579 51.5415 23.3757 51.2153 21.7717 49.9847C21.509 49.7797 21.1995 49.5559 21.509 49.1458C21.8936 48.6237 22.1938 48.5212 22.644 48.8475C23.7134 49.6212 24.8671 50.0034 26.1898 49.6585C26.912 49.472 27.3904 49.0246 27.5687 48.3068C27.7375 47.6263 27.3811 47.1415 26.8933 46.722C26.5931 46.461 26.2273 46.3212 25.8521 46.1907C25.0172 45.9017 24.1824 45.6127 23.3569 45.2958C21.978 44.7551 21.2651 43.5898 21.4433 42.2288C21.6122 40.961 22.6815 39.9729 24.0886 39.8051C24.3419 39.7771 24.5951 39.7678 24.7358 39.7492V39.7398Z" fill="#161616"/>
<path d="M51.2726 46.8525C51.2726 48.0364 51.2539 49.2203 51.2726 50.4042C51.282 50.8703 51.0757 50.9915 50.6723 50.9915C50.0251 50.9915 49.9125 50.9263 49.9031 50.4042C49.9031 48.0178 49.9031 45.6407 49.9031 43.2542C49.9031 42.7415 50.2033 42.6763 50.5973 42.6949C50.9725 42.7042 51.2914 42.7229 51.282 43.2636C51.2445 44.4661 51.2726 45.6686 51.2726 46.8619V46.8525Z" fill="#161616"/>
<path d="M49.7061 40.8119C49.7061 40.3085 50.1001 39.8983 50.5879 39.8797C51.0569 39.8703 51.5634 40.3644 51.5447 40.8212C51.5259 41.278 51.0663 41.7068 50.5973 41.7068C50.0814 41.7068 49.7061 41.3246 49.7061 40.8025V40.8119Z" fill="#161616"/>
<path d="M39.4816 8.50169C39.3315 7.9983 39.1533 7.50424 38.9469 7.01949C38.3372 5.59322 37.568 4.29746 36.0297 3.64491C35.6732 3.49576 35.7764 3.26271 35.9922 3.0483C36.5831 2.47966 37.1553 1.90169 37.7556 1.35169C38.0464 1.09068 38.0933 0.87627 37.7087 0.708473C36.9771 0.400846 36.236 0.0745751 35.4293 -1.15577e-06C33.5064 -0.167798 31.6116 1.28644 31.0769 3.29068C30.8611 4.11102 30.8142 4.15763 29.9606 4.11102C28.8162 4.04576 27.6812 4.11102 26.5462 4.26949C24.7827 4.51186 23.1318 5.07119 21.7247 6.19915C19.5673 7.93305 18.9669 10.5992 20.2333 12.883C21.0681 14.3932 22.4189 15.3627 23.9103 16.1458C25.4393 16.9475 27.0809 17.4508 28.7037 17.9915C30.0638 18.4483 31.3958 18.9424 32.4089 20.0424C34.2756 22.0746 33.4595 25.0763 30.7955 25.8127C28.835 26.3534 26.8745 26.2881 24.9703 25.5797C23.6196 25.0763 22.6534 24.1441 22.3345 22.7085C21.9874 21.161 23.2162 19.5856 24.6701 19.7161C25.5425 19.7907 26.0866 20.3127 26.3774 21.1144C26.6212 21.7949 26.4805 22.3636 25.974 22.8203C25.6926 23.072 25.3643 23.2119 24.9891 23.0627C24.6514 22.9229 24.6045 22.6246 24.6326 22.2983C24.642 22.1958 24.6701 22.0373 24.5013 22.028C24.3794 22.028 24.2856 22.1025 24.2293 22.2237C24.0135 22.6712 24.2762 23.2585 24.7921 23.4729C25.4206 23.7339 26.1991 23.4263 26.565 22.7551C27.3717 21.3008 26.368 19.4271 24.6514 19.222C24.4919 19.2034 24.2668 19.278 24.2574 19.0263C24.2574 18.8305 24.4356 18.7559 24.6045 18.7C24.8015 18.6347 24.9985 18.5881 25.1954 18.3644C24.6983 18.2246 24.3418 18.3831 23.9948 18.6068C23.6571 18.8305 23.4226 18.8212 23.2443 18.4017C22.8129 17.3949 21.9874 16.789 21.0212 16.3415C20.6554 16.1737 20.4396 16.2856 20.2896 16.6212C20.0457 17.1619 19.8205 17.7119 19.5767 18.2432C19.0607 19.3432 18.6761 20.4619 18.6855 21.7017C18.6855 22.1585 18.4135 22.3169 17.9632 22.2051C17.785 22.1585 17.5787 22.0466 17.4473 22.2144C17.3348 22.3449 17.4098 22.5407 17.4755 22.6992C17.7944 23.5195 18.0852 24.3492 18.5261 25.1136C19.042 26.0085 19.6611 26.8008 20.6366 27.2576C21.2557 27.5466 21.2651 27.7144 20.7586 28.2085C20.2333 28.7212 19.6986 29.2153 19.1733 29.728C18.9482 29.9424 18.8731 30.1754 19.2202 30.3246C20.4021 30.8373 21.6216 31.2475 22.9254 30.8466C24.5482 30.3525 25.5144 29.2153 25.9083 27.6025C26.0303 27.0992 26.2648 26.8941 26.7807 26.9127C27.4749 26.9407 28.1784 26.9314 28.8819 26.9127C31.0206 26.8661 33.0374 26.3907 34.8102 25.1602C36.7426 23.8178 37.6149 21.9627 37.2116 19.6322C36.9489 18.1407 36.0109 17.05 34.8478 16.1271C33.0374 14.7102 30.9268 13.9271 28.7412 13.2932C27.2497 12.8551 25.8145 12.2864 24.6701 11.1678C23.6477 10.1703 23.2725 8.9678 23.6665 7.59746C24.051 6.23644 25.0454 5.43474 26.368 5.18305C28.0471 4.8661 29.7636 4.85678 31.4333 5.29491C32.5871 5.59322 33.5251 6.27373 34.1818 7.28051C35.0541 8.62288 34.6602 10.3847 33.3375 11.1305C32.5965 11.55 31.8554 11.4661 31.2176 10.9068C30.5516 10.3288 30.3077 9.48983 30.5891 8.75339C30.7204 8.42712 30.9268 8.1661 31.2551 8.01695C31.8367 7.74661 32.3338 8.09152 32.3151 8.72542C32.3151 8.82796 32.2494 8.98644 32.4276 9.00508C32.5496 9.02373 32.6622 8.9678 32.7372 8.85593C32.8591 8.66949 32.8498 8.47373 32.7841 8.26864C32.6059 7.71864 32.0431 7.37373 31.4615 7.47627C30.7767 7.58813 30.3921 8.05424 30.1858 8.66017C29.7167 10.0305 30.7017 11.5686 32.1462 11.7551C32.3245 11.783 32.5683 11.7551 32.5871 11.9881C32.6059 12.2025 32.3714 12.2678 32.2025 12.333C31.9962 12.4076 31.7804 12.4542 31.6116 12.6686C32.1369 12.9017 32.559 12.6127 32.9623 12.4169C33.3751 12.2119 33.572 12.2864 33.7409 12.6873C34.1536 13.6847 34.9322 14.3093 35.9171 14.7102C36.2736 14.8593 36.4893 14.7847 36.6394 14.4212C36.9677 13.6475 37.3242 12.8737 37.6618 12.1C38.0183 11.2703 38.2622 10.4127 38.2434 9.48983C38.234 8.83729 38.4029 8.7161 39.0595 8.87458C39.491 8.97712 39.6129 8.87457 39.4816 8.45508V8.50169ZM19.4266 19.7907C19.7643 18.9424 20.1395 18.1127 20.4772 17.2644C20.6554 16.8263 20.9274 16.7797 21.3308 16.9754C22.1281 17.3763 22.6721 18.0008 22.9911 18.8212C23.1412 19.1941 23.1036 19.539 22.8691 19.8746C22.6815 20.1356 22.5221 20.4153 22.3438 20.6856C22.2594 20.8068 22.1562 20.9653 21.9874 20.9093C21.8373 20.8627 21.7904 20.6949 21.781 20.5271C21.7623 20.2941 21.7435 20.0517 21.7154 19.828C21.706 19.7534 21.6403 19.6788 21.4808 19.6881C21.4058 20.2475 21.4808 20.8068 21.5559 21.3661C21.6403 22.1398 21.6216 22.1678 20.8242 22.1585C20.449 22.1585 20.0738 22.1305 19.6986 22.1212C19.2859 22.1212 19.1264 21.9161 19.1264 21.5153C19.1264 20.9186 19.2108 20.3314 19.4266 19.7814V19.7907ZM20.1676 26.5025C19.0795 25.6449 18.5542 24.4424 18.1321 23.1839C18.0383 22.9229 18.1884 22.811 18.4323 22.7737C19.2202 22.6432 20.0175 22.5407 20.8149 22.578C21.4339 22.6059 21.8842 22.9229 22.1375 23.4636C22.4095 24.0415 22.7753 24.5449 23.1599 25.0297C23.2725 25.1695 23.4038 25.328 23.3006 25.4771C23.1881 25.6542 23.0005 25.5331 22.841 25.4864C22.0155 25.2627 21.2463 24.9178 20.4584 24.5915C20.2896 24.5263 20.1395 24.3958 19.8862 24.461C20.0081 24.7873 20.252 24.8992 20.4772 25.039C21.1338 25.4492 21.8748 25.6449 22.6065 25.878C22.7566 25.9246 22.9629 25.9525 23.0005 26.1576C23.0474 26.3907 22.8316 26.4653 22.6815 26.5678C21.6497 27.3136 21.1807 27.3042 20.1582 26.5025H20.1676ZM25.4018 28.05C24.2856 30.3712 22.4095 31.0144 20.0644 30.2034C19.783 30.1102 19.6798 29.9237 19.9331 29.672C20.7867 28.8424 21.5371 27.9102 22.4939 27.1924C23.1318 26.7263 23.7978 26.3254 24.6326 26.3534C24.8578 26.3534 25.0923 26.3627 25.2048 26.6051C25.3268 26.8568 25.1485 27.0339 25.0078 27.1924C24.4732 27.789 23.9572 28.4136 23.385 29.0008C23.9666 28.9263 24.3418 28.5347 24.717 28.1525C24.839 28.0314 24.9422 27.9008 25.0641 27.7797C25.1392 27.7144 25.2236 27.6585 25.3361 27.7331C25.4581 27.8169 25.4581 27.9102 25.3924 28.0407L25.4018 28.05ZM32.1369 4.68898C31.6866 4.64237 31.574 4.42796 31.8085 4.03644C32.1838 3.42119 32.6903 2.92712 33.2343 2.45169C33.3938 2.31186 33.6002 2.20932 33.6846 1.83644C33.0374 2.15339 32.5777 2.50763 32.165 2.93644C32.0618 3.0483 31.9586 3.16017 31.8461 3.27203C31.771 3.34661 31.6678 3.39322 31.574 3.31864C31.4896 3.25339 31.5365 3.16949 31.5647 3.08559C32.0431 1.86441 33.0936 0.652541 34.7633 0.522033C35.4669 0.466101 36.1516 0.661863 36.8176 0.857626C37.1553 0.950846 37.2585 1.16525 36.9677 1.45424C36.0484 2.35847 35.1667 3.30932 34.1349 4.08305C33.5439 4.53051 32.8873 4.77288 32.1369 4.68898ZM37.8119 9.80678C37.7463 10.4686 37.568 11.1025 37.3148 11.7178C37.0334 12.4076 36.7707 13.0975 36.4799 13.7873C36.2642 14.3093 36.0766 14.3653 35.57 14.1042C34.9228 13.7593 34.4256 13.2653 34.0973 12.6034C33.8065 12.0347 33.7972 11.5127 34.1911 10.9907C34.2756 10.8881 34.3318 10.7576 34.4256 10.6551C34.5851 10.45 34.6977 10.0771 35.0072 10.1797C35.2793 10.2636 35.1385 10.6271 35.1667 10.8695C35.1948 11.0466 35.1667 11.2424 35.4481 11.4195C35.5231 10.7576 35.4669 10.1797 35.3918 9.59237C35.3168 9.00508 35.3918 8.93983 35.964 8.94915C36.3205 8.94915 36.6769 8.94915 37.0427 8.94915C37.7463 8.94915 37.8776 9.0983 37.8025 9.80678H37.8119ZM38.0277 8.42712C37.7087 8.46441 37.3804 8.47373 37.0615 8.50169C37.0615 8.50169 37.0615 8.52034 37.0615 8.52966C36.827 8.52966 36.5831 8.52966 36.3486 8.52966C35.5325 8.52966 34.9603 8.21271 34.7164 7.37373C34.5663 6.85169 34.1911 6.4322 33.8159 6.03135C33.7127 5.92881 33.5158 5.80763 33.6002 5.6678C33.7127 5.49068 33.9379 5.56525 34.1067 5.62119C34.904 5.91949 35.692 6.22712 36.4893 6.5161C36.6582 6.58135 36.902 6.80508 37.0052 6.60932C37.1084 6.42288 36.8176 6.29237 36.6582 6.18051C35.9546 5.68644 35.1385 5.43474 34.3225 5.19237C34.1442 5.13644 33.9097 5.13644 33.8628 4.94068C33.7972 4.68898 34.0692 4.62373 34.2287 4.51186C35.3074 3.75678 35.7952 3.77542 36.8551 4.61441C37.7463 5.3322 38.1871 6.3483 38.6374 7.34576C39.0314 8.21271 38.9751 8.29661 38.0371 8.40847L38.0277 8.42712Z" fill="#161616"/>
<path d="M48.2897 39.8237C48.2897 39.6093 48.3366 39.339 48.0927 39.2364C47.755 39.1059 47.3798 39.1059 47.0515 39.2364C46.7513 39.3483 46.817 39.6559 46.817 39.9076C46.817 41.0263 46.8358 42.1449 46.8451 43.2636C46.8451 43.478 46.9202 43.7483 46.6857 43.8602C46.4512 43.972 46.3386 43.7017 46.1979 43.5805C45.3724 42.8441 44.425 42.4339 43.2994 42.5924C40.6448 42.9559 39.0126 45.5288 39.763 48.1203C40.6448 51.1593 43.8904 52.1288 46.3199 50.0686C46.3574 50.0314 46.3949 50.0034 46.4324 49.9754C46.6669 49.8076 46.8452 49.817 46.8921 50.1432C46.9108 50.2644 46.9202 50.3763 46.9202 50.4975C46.9108 51.0475 47.2673 51.1034 47.6988 51.1034C48.149 51.1034 48.2897 50.861 48.2897 50.4602C48.2897 48.6797 48.2897 46.8992 48.2897 45.128C48.2897 43.3661 48.2897 41.6042 48.2897 39.8424V39.8237ZM43.8997 49.7517C42.4083 49.7331 41.02 48.3347 41.0294 46.8525C41.0388 45.361 42.4177 43.9907 43.9185 43.972C45.4569 43.9534 46.817 45.3424 46.8076 46.9271C46.8076 48.428 45.4287 49.761 43.8997 49.7424V49.7517Z" fill="#161616"/>
<path d="M38.4779 46.8805C38.4779 45.678 38.4779 44.4754 38.4779 43.2729C38.4779 43.0678 38.4967 42.8534 38.2622 42.7509C37.69 42.4805 37.1835 42.7975 37.1459 43.4127C37.1366 43.6178 37.2304 43.9068 36.9677 44C36.7426 44.0746 36.63 43.8229 36.4893 43.6831C35.6545 42.8627 34.6789 42.4153 33.4876 42.5924C30.5516 43.0305 28.9569 46.0881 30.2045 48.8102C31.1238 50.8144 34.1818 52.2873 36.3299 50.1898C36.4424 50.0873 36.5737 50.0034 36.6957 49.9195C36.9396 49.761 37.0803 49.8636 37.1178 50.1246C37.1366 50.2364 37.1459 50.3576 37.1366 50.4788C37.1178 51.0288 37.4649 51.0941 37.9057 51.0941C38.3748 51.0941 38.4686 50.8331 38.4686 50.4415C38.4686 49.2576 38.4686 48.0737 38.4686 46.8805H38.4779ZM34.1442 49.7517C32.6059 49.7517 31.2833 48.4093 31.2833 46.8339C31.2833 45.3424 32.6153 43.9814 34.0973 43.972C35.6638 43.9534 37.0334 45.3051 37.0334 46.8712C37.0334 48.428 35.7108 49.7517 34.1442 49.7517Z" fill="#161616"/>
<path d="M11.7066 42.6763C9.60542 43.1983 8.2359 45.128 8.43288 47.272C8.62987 49.4068 10.3277 51.0288 12.5227 51.1593C13.8735 51.2339 15.0741 50.8517 16.0872 49.9288C16.4155 49.6305 16.3686 49.4068 16.0122 49.1644C15.5994 48.8941 15.243 48.8754 14.8115 49.1924C13.2731 50.3297 11.1907 49.9381 10.2996 48.372C9.93373 47.7381 10.0557 47.5144 10.778 47.5051C11.6785 47.5051 12.5884 47.5051 13.4889 47.5051C14.4456 47.5051 15.4024 47.5051 16.3498 47.5051C16.7532 47.5051 16.9314 47.3653 16.9502 46.9458C17.0815 44.1491 14.4363 41.9864 11.7066 42.6669V42.6763ZM14.9334 46.3398C14.1642 46.4237 13.4044 46.2932 12.8041 46.3398C11.9411 46.3398 11.2376 46.3678 10.5434 46.3398C9.98063 46.3119 9.89621 46.1347 10.1307 45.6127C10.5904 44.5966 11.3877 44.0186 12.4852 43.9254C13.5733 43.8322 14.4363 44.2797 15.0647 45.1746C15.1961 45.3517 15.2805 45.5568 15.3368 45.7712C15.4212 46.1254 15.3274 46.3119 14.9334 46.3585V46.3398Z" fill="#161616"/>
<path d="M60.7655 45.5475C60.0995 43.4593 57.942 42.2102 55.8221 42.6856C53.5802 43.189 52.1544 45.2212 52.4358 47.4305C52.7172 49.6585 54.734 51.411 57.3886 51.1407C58.411 51.0381 59.3303 50.6466 60.0807 49.9195C60.3528 49.6585 60.334 49.4441 60.0432 49.2017C59.6023 48.8475 59.3678 48.8475 58.7675 49.2576C57.1728 50.339 55.1561 49.9288 54.2462 48.3534C53.8991 47.7475 54.0211 47.5237 54.7152 47.5237C55.6345 47.5237 56.5537 47.5237 57.4824 47.5237C58.4204 47.5237 59.3585 47.5237 60.2965 47.5237C60.8968 47.5237 61 47.4025 61 46.7966C61 46.3678 60.8968 45.9576 60.7655 45.5568V45.5475ZM58.8613 46.3491C58.1296 46.3864 57.398 46.3585 56.6663 46.3585C56.6663 46.3585 56.6663 46.3678 56.6663 46.3771C56.0191 46.3771 55.3718 46.3864 54.7246 46.3771C54.0023 46.3585 53.8616 46.1254 54.1618 45.4915C54.6214 44.5127 55.6908 43.8602 56.807 43.9068C57.9983 43.9534 58.8238 44.5407 59.3209 45.6034C59.5367 46.0695 59.396 46.3212 58.8613 46.3491Z" fill="#161616"/>
</g>
<defs>
<clipPath id="clip0_48_121">
<rect width="61" height="55" fill="white"/>
</clipPath>
</defs>
</svg>
